<svg xmlns="http://www.w3.org/2000/svg" width="730.372" height="609.06" xmlns:v="https://vecta.io/nano"><path d="M365.74 130.785a69.2 69.2 0 0 1-16.48 8.711l-4.61 1.564h-68.698l-.888-1.564c-5.939-10.564-11.376-21.545-12.895-33.491-1.785-14.049 3.22-29.959 15.591-36.863 1.622-.903 3.339-1.623 5.119-2.149.736-.22 1.488-.403 2.248-.562 9.442-2.096 19.28 1.07 25.728 8.279s8.502 17.337 5.37 26.488c10.488-10.753 8.528-28.19 4.914-42.763-3.622-14.581-8.012-30.795-.638-43.887 4.093-7.283 11.3-11.809 19.38-13.624l.745-.159c9.634-1.947 19.648-.193 28.045 4.913 15.454 9.743 23.398 28.213 25.972 46.31 4.154 29.116-5.035 61.605-28.904 78.798z" fill="#f2f2f2"/><path d="M290.724 75.704a60.19 60.19 0 0 1 5.194 37.44 61.73 61.73 0 0 1-11.878 26.352l-1.261 1.564h-2.84a50.39 50.39 0 0 0 1.336-1.564 58.74 58.74 0 0 0 12.645-47.183 59.33 59.33 0 0 0-11.042-25.319l2.248-.562a61.02 61.02 0 0 1 5.597 9.273zm68.242 8.414a66.38 66.38 0 0 1-4.58 18.697 57.74 57.74 0 0 1-8.946 14.611 73.81 73.81 0 0 1-28.357 20.444 84.49 84.49 0 0 1-4.169 1.625q-2.324.843-4.678 1.564h-8.46l6.159-1.564a90.29 90.29 0 0 0 14.626-5.551c10.177-4.823 19.012-12.073 25.73-21.112 7.207-9.941 10.389-21.902 10.928-34.06a143.47 143.47 0 0 0-4.078-38.913 163.1 163.1 0 0 0-13.723-37.386c-.282-.557-.079-1.238.463-1.549.217-.151.485-.208.745-.159.255.072.466.252.577.494l2.195 4.412c5.898 12.346 10.242 25.376 12.933 38.791 2.605 12.941 4.002 26.474 2.635 39.657z" fill="#fff"/><circle cx="529.357" cy="247.076" r="28" fill="#2f2e41"/><path fill="#a0616a" d="M522.715 596.582l-12.259-.001-5.833-47.288 18.095.001-.003 47.288z"/><path d="M525.842 608.466l-39.531-.001v-.5c0-4.081 1.621-7.994 4.507-10.88s6.799-4.506 10.88-4.506h.001l24.144.001z" fill="#2f2e41"/><path fill="#a0616a" d="M605.288 586.134l-11.686 3.706-19.855-43.313 17.248-5.469 14.293 45.076z"/><path d="M611.861 596.517l-37.681 11.949-.151-.477a15.38 15.38 0 0 1 1.007-11.733 15.39 15.39 0 0 1 9.009-7.585h.001l23.014-7.298zm-90.169-12.441h-10.487c-2.18.002-4.048-1.561-4.43-3.708l-25-170.812 74.456 2.533 47.882 156.859a4.5 4.5 0 0 1-3.748 5.659l-13.515 5.12c-1.964.24-3.851-.838-4.643-2.651l-58.555-132.665a1.5 1.5 0 0 0-2.871.665l5.409 134.318a4.5 4.5 0 0 1-4.496 4.682z" fill="#2f2e41"/><circle cx="529.853" cy="254.344" r="24.561" fill="#a0616a"/><path d="M526.564 429.14c-12.705.001-27.978-3.209-44.366-13.456-1.735-1.085-2.523-3.201-1.922-5.156l16.081-52.025-.2-42.334c1.274-13.893 11.343-25.388 24.948-28.479l.882-.196c10.129-2.235 20.708.673 28.272 7.77a32.44 32.44 0 0 1 10.153 28.101l-4.052 62.187 5.497 31.149c.353 1.936-.603 3.874-2.352 4.773-10.233 5.087-21.513 7.712-32.94 7.668z" fill="#2667ff"/><path d="M508.474 379.372c-.504-.228-1.026-.415-1.56-.561l-15.738-47.03 7.969-9.036-12.066-13.808-15.661 14.626a8 8 0 0 0-1.681 9.453l25.432 50.365a10.5 10.5 0 0 0 11.95 15.581 10.5 10.5 0 0 0 1.355-19.589z" fill="#a0616a"/><path d="M490.312 330.14l-14.871-17.187a4.5 4.5 0 0 1 .989-6.742l19.123-12.155a12.5 12.5 0 0 1 16.299 18.949l-14.725 17.125a4.5 4.5 0 0 1-6.814.01z" fill="#2667ff"/><path d="M500.338 230.869c-1.947 1.081-3.651 2.552-5.004 4.321-1.189 1.825-1.431 4.364.054 5.99 1.755 1.922 4.929 1.789 7.621 1.492l27.36-3.015-10.771 7.6 25.895-2.583c4.525-.451 9.739-1.308 11.945-5.011 2.587-4.345-.706-9.739-4.641-13.096-7.951-6.601-18.132-9.899-28.444-9.214-10.249.667-19.837 5.298-26.731 12.911z" fill="#2f2e41"/><path d="M527.711 362.151h-.302v-8.281c0-2.647-2.146-4.793-4.793-4.793H505.07c-2.647 0-4.793 2.146-4.793 4.793v45.433c0 2.647 2.146 4.793 4.793 4.793h17.546c2.647 0 4.793-2.146 4.793-4.793v-31.257h.302z" fill="#3f3d56"/><circle cx="513.357" cy="364.076" r="4" fill="#fff"/><path d="M517.227 375.213c.55.058 1.095.16 1.629.304l37.342-32.636-2.312-11.824 17.389-5.821 6.126 20.535a8 8 0 0 1-3.325 9.007l-47.392 30.616a10.5 10.5 0 0 1-18.185 7.409 10.5 10.5 0 0 1 8.727-17.59z" fill="#a0616a"/><path d="M554.045 341.522c-1.129-.662-1.913-1.783-2.147-3.071l-4.056-22.218a12.5 12.5 0 0 1 7.771-15.848 12.5 12.5 0 0 1 15.868 7.729l10.362 20.151a4.5 4.5 0 0 1-2.553 6.318l-21.517 7.319c-1.239.422-2.6.283-3.728-.38z" fill="#2667ff"/><path d="M373.1 276.41H199.71c-8.837 0-16 7.163-16 16s7.163 16 16 16h155.54l12.68 19.49a3.03 3.03 0 0 0 2.56 1.42c.308.001.614-.043.91-.13 1.327-.373 2.238-1.591 2.22-2.97V308.4c8.731-.283 15.62-7.517 15.478-16.251s-7.263-15.74-15.998-15.739zm0 29.94h-1.55v19.87c.004.457-.296.861-.734.991s-.91-.046-1.156-.431l-13.28-20.43H199.71a13.94 13.94 0 0 1-13.935-13.935 13.94 13.94 0 0 1 13.935-13.935H373.1a13.94 13.94 0 0 1 13.935 13.935A13.94 13.94 0 0 1 373.1 306.35z" fill="#3f3d56"/><path d="M296.73 208.3H16A16 16 0 0 0 .005 224.295 16 16 0 0 0 16 240.29h2.58v18.84a3.04 3.04 0 0 0 2.21 2.97c.299.087.609.13.92.13a3.02 3.02 0 0 0 2.56-1.41l13.34-20.53h259.12c8.834 0 15.995-7.161 15.995-15.995A16 16 0 0 0 296.73 208.3zm0 29.93H36.49l-13.95 21.46a1.03 1.03 0 0 1-1.159.43c-.439-.13-.74-.532-.741-.99v-20.9H16a13.94 13.94 0 0 1-13.935-13.935A13.94 13.94 0 0 1 16 210.36h280.73a13.94 13.94 0 0 1 13.935 13.935 13.94 13.94 0 0 1-13.935 13.935zM189.39 72.06H16A16 16 0 0 0 .005 88.055c0 8.834 7.161 15.995 15.995 15.995h2.58v18.84a3.04 3.04 0 0 0 2.21 2.97 3.3 3.3 0 0 0 .92.14 3.03 3.03 0 0 0 2.56-1.42l13.34-20.53h151.78a16 16 0 0 0 15.995-15.995A16 16 0 0 0 189.39 72.06zm0 29.93H36.49l-13.95 21.47c-.252.38-.724.551-1.161.42a1.04 1.04 0 0 1-.739-.99v-20.9H16A13.94 13.94 0 0 1 2.065 88.055 13.94 13.94 0 0 1 16 74.12h173.39a13.94 13.94 0 0 1 13.935 13.935 13.94 13.94 0 0 1-13.935 13.935z" fill="#ccc"/><path d="M373.1 140.18H130.56a16 16 0 0 0-15.995 15.995 16 16 0 0 0 15.995 15.995h220.67l16.7 25.69a3.03 3.03 0 0 0 2.56 1.42 3.19 3.19 0 0 0 .91-.14c1.329-.37 2.241-1.59 2.22-2.97v-24c8.731-.283 15.62-7.517 15.478-16.251s-7.263-15.74-15.998-15.739zm0 29.93h-1.55v26.06a.99.99 0 0 1-.73.99c-.437.141-.914-.032-1.16-.42l-17.31-26.63H130.56a13.94 13.94 0 0 1-13.935-13.935 13.94 13.94 0 0 1 13.935-13.935H373.1a13.94 13.94 0 0 1 13.935 13.935A13.94 13.94 0 0 1 373.1 170.11z" fill="#3f3d56"/><g fill="#2667ff"><circle cx="204.355" cy="292.928" r="8.257"/><circle cx="229.125" cy="292.928" r="8.257"/><circle cx="253.896" cy="292.928" r="8.257"/></g><path d="M269.23 220.21H43.5c-2.336.001-4.229 1.894-4.23 4.23v.74c.001 2.336 1.894 4.229 4.23 4.23h225.73a4.24 4.24 0 0 0 4.23-4.23v-.74a4.24 4.24 0 0 0-4.23-4.23zM182.02 82.94H23.37a4.24 4.24 0 0 0-4.23 4.23v.74a4.24 4.24 0 0 0 4.23 4.23h158.65a4.24 4.24 0 0 0 4.23-4.23v-.74a4.24 4.24 0 0 0-4.23-4.23z" fill="#ccc"/><path d="M331.16 152.09H172.51a4.24 4.24 0 0 0-4.23 4.23v.74a4.24 4.24 0 0 0 4.23 4.23h158.65a4.23 4.23 0 0 0 4.22-4.23v-.74a4.23 4.23 0 0 0-4.22-4.23z" fill="#2667ff"/><path d="M729.372 609.06h-381a1 1 0 1 1 0-2h381a1 1 0 1 1 0 2z" fill="#3f3d56"/></svg>